<svg width="41" height="40" viewBox="0 0 41 40" fill="none" xmlns="http://www.w3.org/2000/svg">
<g clip-path="url(#clip0_1_33235)">
<path d="M22.0892 21.0415V28.3088H18.8772V21.0415V21.0171H18.8528H16.2278V18.0496H18.8528H18.8772V18.0252V15.7264C18.8772 14.4237 19.2652 13.4155 19.947 12.733C20.6289 12.0505 21.6074 11.6909 22.7942 11.6909C23.3637 11.6909 23.9466 11.7418 24.3873 11.7926C24.6076 11.8181 24.7923 11.8435 24.9219 11.8626C24.9867 11.8721 25.0377 11.8801 25.0725 11.8856L25.1054 11.891V14.4139H23.8141C23.1607 14.4139 22.7281 14.6169 22.4593 14.9277C22.1911 15.2378 22.0892 15.6517 22.0892 16.0679V18.0252V18.0496H22.1136H24.9793L24.5239 21.0171H22.1136H22.0892V21.0415Z" fill="#697687" stroke="#697687" stroke-width="0.0488281"/>
</g>
<rect x="1.16663" y="0.5" width="39" height="39" rx="19.5" stroke="#697687"/>
<defs>
<clipPath id="clip0_1_33235">
<rect width="16.6667" height="16.6667" fill="white" transform="translate(12.3333 11.6665)"/>
</clipPath>
</defs>
</svg>
