<svg width="25" height="24" viewBox="0 0 25 24" fill="none" xmlns="http://www.w3.org/2000/svg">
<path d="M15.8333 14H15.0433L14.7633 13.73C15.7771 12.554 16.3344 11.0527 16.3333 9.5C16.3333 8.21442 15.952 6.95772 15.2378 5.8888C14.5236 4.81988 13.5084 3.98676 12.3207 3.49479C11.133 3.00282 9.82604 2.87409 8.56517 3.1249C7.30429 3.3757 6.1461 3.99477 5.23706 4.90381C4.32802 5.81285 3.70895 6.97104 3.45815 8.23192C3.20735 9.49279 3.33607 10.7997 3.82804 11.9874C4.32001 13.1752 5.15313 14.1903 6.22205 14.9046C7.29097 15.6188 8.54768 16 9.83325 16C11.4433 16 12.9233 15.41 14.0633 14.43L14.3333 14.71V15.5L19.3333 20.49L20.8233 19L15.8333 14ZM9.83325 14C7.34326 14 5.33326 11.99 5.33326 9.5C5.33326 7.01 7.34326 5 9.83325 5C12.3233 5 14.3333 7.01 14.3333 9.5C14.3333 11.99 12.3233 14 9.83325 14Z" fill="#989898"/>
</svg>
