<svg width="41" height="40" viewBox="0 0 41 40" fill="none" xmlns="http://www.w3.org/2000/svg">
<path d="M28.098 23.1896C28.0394 24.3582 27.7724 25.3934 26.9196 26.2463C26.0667 27.1024 25.0316 27.3693 23.8629 27.4246L28.098 23.1896ZM28.098 23.1896C28.1663 21.9852 28.1663 18.3784 28.098 17.174V23.1896ZM28.0736 17.1751L28.0736 17.1754C28.1419 18.3789 28.1419 21.9847 28.0736 23.1882L28.0736 23.1884C28.0151 24.354 27.7492 25.3821 26.9023 26.229L26.9023 26.229C26.0554 27.0791 25.0273 27.3451 23.8618 27.4003L23.8616 27.4003C22.6581 27.4686 19.049 27.4686 17.8454 27.4003L17.8453 27.4003C16.6797 27.3418 15.6548 27.0759 14.8047 26.229C13.9546 25.3821 13.6886 24.354 13.6334 23.1885L13.6334 23.1882C13.5651 21.9847 13.5651 18.3756 13.6334 17.1721L13.6334 17.172C13.6919 16.0063 13.9546 14.9782 14.8047 14.1314C15.6548 13.2845 16.683 13.0185 17.8452 12.9634L17.8454 12.9633C19.049 12.895 22.6581 12.895 23.8616 12.9633L23.8617 12.9633C25.0273 13.0218 26.0555 13.2878 26.9023 14.1346L26.9024 14.1346C27.7524 14.9815 28.0184 16.0096 28.0736 17.1751ZM25.1643 25.8913L25.1643 25.8913C25.8118 25.6317 26.3083 25.1352 26.5647 24.491C26.7569 24.0079 26.8301 23.194 26.8557 22.3717C26.874 21.7825 26.868 21.1863 26.8631 20.7007C26.8611 20.5078 26.8594 20.3324 26.8594 20.1818C26.8594 20.0312 26.8611 19.8558 26.8631 19.663C26.868 19.1777 26.874 18.582 26.8557 17.9931C26.8301 17.1713 26.7569 16.3574 26.5647 15.8727L26.5646 15.8726C26.305 15.2251 25.8086 14.7287 25.1643 14.4723L25.1642 14.4722C24.6812 14.2817 23.8673 14.2085 23.045 14.1825C22.4514 14.1637 21.8507 14.1694 21.3631 14.1741C21.1745 14.1759 21.0029 14.1776 20.8551 14.1776C20.7045 14.1776 20.5291 14.1758 20.3363 14.1738C19.851 14.1689 19.2553 14.1629 18.6665 14.1812C17.8446 14.2069 17.0307 14.28 16.546 14.4723L16.5459 14.4723C15.8985 14.7319 15.402 15.2284 15.1456 15.8726L15.1456 15.8727C14.955 16.3557 14.8818 17.1696 14.8558 17.9919C14.837 18.5855 14.8428 19.1863 14.8474 19.6738C14.8493 19.8624 14.8509 20.0341 14.8509 20.1818C14.8509 20.3324 14.8491 20.5078 14.8472 20.7007C14.8423 21.1859 14.8362 21.7816 14.8546 22.3705C14.8802 23.1924 14.9534 24.0063 15.1456 24.4909L15.1456 24.491C15.4053 25.1385 15.9017 25.6349 16.546 25.8913L16.546 25.8914C17.0291 26.0819 17.8429 26.1551 18.6652 26.1811C19.2588 26.1999 19.8596 26.1942 20.3471 26.1895C20.5357 26.1877 20.7074 26.186 20.8551 26.186C21.0057 26.186 21.1811 26.1878 21.374 26.1898C21.8593 26.1947 22.455 26.2007 23.0438 26.1824C23.8657 26.1567 24.6796 26.0836 25.1643 25.8913ZM17.1393 20.1818C17.1393 18.125 18.7983 16.466 20.8551 16.466C22.912 16.466 24.571 18.125 24.571 20.1818C24.571 22.2386 22.912 23.8976 20.8551 23.8976C18.7983 23.8976 17.1393 22.2386 17.1393 20.1818ZM18.3991 20.1818C18.3991 21.5365 19.5038 22.6379 20.8551 22.6379C22.2065 22.6379 23.3112 21.5365 23.3112 20.1818C23.3112 18.8272 22.2098 17.7257 20.8551 17.7257C19.5005 17.7257 18.3991 18.8272 18.3991 20.1818ZM25.5963 16.2886C25.5963 16.7601 25.2167 17.1366 24.7484 17.1366C24.2769 17.1366 23.9004 16.7569 23.9004 16.2886C23.9004 15.8203 24.2801 15.4406 24.7484 15.4406C25.2166 15.4406 25.5963 15.8203 25.5963 16.2886Z" fill="#697687" stroke="#697687" stroke-width="0.0488281"/>
<rect x="1.16663" y="0.5" width="39" height="39" rx="19.5" stroke="#697687"/>
</svg>
