<svg width="41" height="40" viewBox="0 0 41 40" fill="none" xmlns="http://www.w3.org/2000/svg">
<path d="M17.13 28.334C17.054 27.609 16.9855 26.5152 17.168 25.7342C17.2512 25.3757 17.5191 24.2372 17.7663 23.1884L18.0958 21.7911L18.2007 21.3466L18.2297 21.2236L18.2373 21.1914L18.2379 21.1888L18.2297 21.171C18.2221 21.1541 18.2112 21.1292 18.1983 21.0969C18.1724 21.0322 18.1379 20.9376 18.1034 20.8176C18.0346 20.5774 17.9657 20.2351 17.9657 19.8258C17.9657 18.5439 18.71 17.5762 19.6498 17.5762C20.0483 17.5762 20.3456 17.726 20.5428 17.9668C20.7395 18.207 20.8348 18.5354 20.8348 18.8906C20.8348 19.2883 20.7089 19.7822 20.5519 20.3105C20.508 20.4583 20.4616 20.6088 20.4148 20.7608C20.2937 21.1538 20.1695 21.5569 20.0764 21.9494L20.0764 21.9494C19.8624 22.8453 20.5249 23.5752 21.4092 23.5752C22.2147 23.5752 22.9286 23.1508 23.442 22.4163C23.9555 21.6815 24.2678 20.6369 24.2678 19.4007C24.2678 18.309 23.8755 17.3831 23.2047 16.7301C22.5338 16.0771 21.5828 15.6956 20.4629 15.6956C17.8679 15.6956 16.3476 17.6389 16.3476 19.6484C16.3476 20.4306 16.649 21.2677 17.0184 21.7249C17.0185 21.725 17.0185 21.725 17.0185 21.7251L16.9996 21.7404C17.0735 21.8291 17.0846 21.9105 17.0624 22.0029L17.13 28.334ZM17.13 28.334C13.7508 26.9936 11.3576 23.6933 11.3576 19.8332C11.3576 14.7828 15.4495 10.6909 20.4999 10.6909C25.5503 10.6909 29.6421 14.7828 29.6421 19.8332C29.6421 24.8835 25.5503 28.9754 20.4999 28.9754C19.5672 28.9754 18.6705 28.835 17.8241 28.5755L17.13 28.334Z" fill="#697687" stroke="#697687" stroke-width="0.0488281"/>
<rect x="1.16663" y="0.5" width="39" height="39" rx="19.5" stroke="#697687"/>
</svg>
